<?xml version="1.0" standalone="no"?>
<!DOCTYPE svg PUBLIC "-//W3C//DTD SVG 20010904//EN"
 "http://www.w3.org/TR/2001/REC-SVG-20010904/DTD/svg10.dtd">
<svg version="1.0" xmlns="http://www.w3.org/2000/svg"
 width="311.000000pt" height="114.000000pt" viewBox="0 0 311.000000 114.000000"
 preserveAspectRatio="xMidYMid meet">

<g transform="translate(0.000000,114.000000) scale(0.100000,-0.100000)"
fill="#000000" stroke="none">
<path d="M2170 1092 c-62 -23 -70 -30 -70 -57 0 -20 24 -85 38 -105 2 -3 12 6
23 19 l19 23 0 -45 c0 -25 5 -49 10 -52 19 -12 10 -48 -24 -95 -64 -89 -68
-102 -62 -203 7 -122 38 -317 49 -317 23 0 263 52 269 58 4 4 2 26 -4 50 -11
43 -7 69 33 207 11 37 10 43 -15 79 -17 26 -26 52 -26 80 0 25 -8 51 -20 66
-21 27 -26 65 -10 75 6 3 10 27 10 53 0 45 1 46 16 24 22 -31 29 -28 48 21 19
51 20 81 4 94 -57 43 -205 55 -288 25z"/>
<path d="M1210 963 c-34 -12 -40 -36 -40 -159 0 -138 7 -154 64 -154 45 0 66
26 66 83 0 40 -3 47 -19 47 -17 0 -20 -8 -23 -47 -3 -40 -6 -48 -23 -48 -19 0
-20 7 -20 120 0 113 1 120 20 120 16 0 21 -8 23 -37 3 -30 7 -38 23 -38 16 0
19 7 19 44 0 60 -37 88 -90 69z"/>
<path d="M1797 950 c-27 -21 -27 -23 -27 -144 0 -137 8 -156 67 -156 54 0 63
22 63 156 0 129 -6 148 -50 159 -18 4 -34 0 -53 -15z m58 -145 c0 -113 -1
-120 -20 -120 -19 0 -20 8 -23 109 -3 122 0 139 25 134 16 -3 18 -17 18 -123z"/>
<path d="M1956 954 c-26 -26 -19 -81 19 -150 39 -69 47 -128 18 -122 -13 2
-20 16 -23 43 -7 53 -34 55 -38 3 -3 -29 2 -43 22 -63 30 -30 46 -31 76 -7 36
29 31 87 -14 160 -25 40 -36 69 -34 88 5 43 26 41 30 -3 2 -27 8 -39 21 -41
14 -3 17 4 17 40 0 24 -5 49 -12 56 -17 17 -64 15 -82 -4z"/>
<path d="M420 805 l0 -155 48 0 c26 0 53 5 60 12 15 15 16 130 1 145 -8 8 -8
13 0 17 12 8 15 94 5 120 -5 12 -20 16 -60 16 l-54 0 0 -155z m75 75 c0 -35
-4 -45 -17 -48 -15 -3 -18 4 -18 48 0 44 3 51 18 48 13 -3 17 -13 17 -48z m3
-138 c3 -47 1 -52 -17 -52 -19 0 -21 6 -21 56 0 47 3 55 18 52 13 -2 18 -15
20 -56z"/>
<path d="M600 952 c0 -4 -9 -70 -20 -147 -11 -77 -20 -143 -20 -147 0 -5 9 -8
19 -8 14 0 21 8 23 28 2 21 8 27 28 27 20 0 26 -6 28 -27 2 -21 9 -28 24 -28
18 0 20 4 14 38 -3 20 -13 90 -23 155 l-17 117 -28 0 c-15 0 -28 -4 -28 -8z
m42 -149 c5 -48 3 -53 -15 -53 -15 0 -18 5 -13 23 3 12 6 42 6 67 1 59 16 33
22 -37z"/>
<path d="M720 805 l0 -155 79 0 c79 0 80 0 83 28 5 41 44 44 53 3 5 -22 13
-31 26 -31 10 0 19 2 19 5 0 9 -40 260 -45 283 -4 15 -13 22 -30 22 -14 0 -25
-2 -25 -4 0 -20 -41 -281 -45 -285 -3 -2 -5 1 -5 7 0 6 -15 12 -32 14 l-33 3
0 133 c0 130 0 132 -22 132 -23 0 -23 -1 -23 -155z m198 7 c8 -58 7 -62 -11
-62 -17 0 -19 5 -13 38 3 20 6 50 6 66 0 46 9 25 18 -42z"/>
<path d="M1000 805 c0 -148 1 -155 20 -155 19 0 20 7 21 98 l1 97 22 -95 c18
-83 24 -95 44 -98 22 -3 22 -3 22 152 0 149 -1 156 -20 156 -18 0 -20 -7 -21
-87 l-1 -88 -20 88 c-19 79 -23 87 -45 87 l-23 0 0 -155z"/>
<path d="M1332 808 l3 -153 53 -3 c47 -3 52 -1 52 17 0 17 -6 21 -30 21 -29 0
-30 1 -30 50 0 47 2 50 25 50 18 0 25 5 25 20 0 15 -7 20 -25 20 -23 0 -25 3
-25 51 0 49 1 50 27 47 20 -2 29 2 31 15 3 14 -5 17 -53 17 l-56 0 3 -152z"/>
<path d="M1490 952 c0 -5 -9 -73 -20 -152 -11 -79 -20 -145 -20 -147 0 -2 8
-3 19 -3 13 0 20 10 25 31 5 25 10 30 28 27 17 -2 24 -11 26 -30 2 -21 9 -28
24 -28 18 0 20 4 14 38 -3 20 -13 90 -23 155 l-17 117 -28 0 c-15 0 -28 -4
-28 -8z m42 -149 c5 -48 3 -53 -15 -53 -15 0 -18 5 -13 23 3 12 6 42 6 67 1
59 16 33 22 -37z"/>
<path d="M1610 805 l0 -155 55 0 c50 0 56 2 65 26 13 34 13 240 0 265 -9 15
-22 19 -65 19 l-55 0 0 -155z m78 2 c3 -112 2 -117 -18 -117 -19 0 -20 6 -20
113 0 63 3 117 7 121 20 20 28 -9 31 -117z"/>
<path d="M2437 788 c-7 -84 2 -115 41 -144 12 -9 11 -24 -13 -104 -20 -68 -26
-107 -23 -146 3 -30 8 -57 11 -61 4 -3 26 -1 49 6 55 15 201 71 211 81 5 4 -6
35 -23 69 -46 90 -49 132 -15 172 26 31 26 35 20 118 -4 47 -9 88 -11 90 -2 2
-11 -2 -20 -10 -23 -19 -162 -21 -189 -3 -11 8 -22 14 -26 14 -3 0 -9 -37 -12
-82z"/>
<path d="M2710 808 c0 -7 25 -26 55 -42 63 -33 131 -95 145 -132 89 -233 -425
-454 -1194 -515 -275 -22 -750 -4 -973 37 -21 4 -35 4 -32 0 11 -11 292 -54
437 -67 208 -17 672 -6 871 20 438 60 759 165 912 300 26 22 54 56 63 75 20
42 21 108 1 145 -30 58 -122 123 -252 178 -26 10 -33 11 -33 1z"/>
<path d="M190 692 c-183 -136 -133 -272 141 -385 488 -202 1448 -219 2076 -36
93 27 278 98 271 104 -2 1 -56 -15 -122 -36 -563 -186 -1508 -192 -2045 -13
-184 61 -294 135 -326 218 -21 55 -9 100 42 157 20 22 34 39 32 39 -2 0 -33
-22 -69 -48z"/>
<path d="M760 460 c0 -109 2 -130 15 -130 12 0 15 17 16 88 1 95 11 83 24 -28
6 -49 10 -60 24 -58 12 2 19 22 27 78 l11 75 2 -77 c1 -71 3 -78 21 -78 19 0
20 7 20 130 l0 130 -29 0 c-29 0 -30 -1 -37 -70 -4 -39 -10 -73 -14 -75 -4 -3
-11 23 -14 56 -9 80 -14 89 -42 89 l-24 0 0 -130z"/>
<path d="M950 460 l0 -130 45 0 c33 0 45 4 45 15 0 10 -10 15 -31 15 -29 0
-30 1 -27 43 2 35 7 43 26 45 31 5 29 32 -3 32 -22 0 -25 4 -25 40 0 38 2 40
30 40 20 0 30 5 30 15 0 11 -12 15 -45 15 l-45 0 0 -130z"/>
<path d="M1060 461 c0 -110 2 -131 15 -131 12 0 15 13 15 60 0 44 4 60 14 60
14 0 26 -42 26 -91 0 -19 5 -29 15 -29 12 0 14 21 12 128 l-2 127 -47 3 -48 3
0 -130z m65 59 c0 -25 -5 -36 -17 -38 -15 -3 -18 4 -18 38 0 34 3 41 18 38 12
-2 17 -13 17 -38z"/>
<path d="M1200 571 c-5 -11 -10 -65 -10 -120 0 -97 1 -101 26 -118 24 -15 29
-15 53 -2 21 12 27 23 29 62 2 37 0 47 -12 47 -11 0 -16 -10 -16 -34 0 -39
-20 -62 -38 -44 -14 14 -16 166 -3 187 13 21 41 5 41 -24 0 -16 6 -25 15 -25
19 0 21 60 3 78 -20 20 -76 15 -88 -7z"/>
<path d="M1337 473 c-10 -65 -17 -124 -17 -130 0 -24 28 -13 34 13 8 31 40 29
44 -4 2 -13 10 -22 21 -22 17 0 17 5 0 118 -10 64 -19 123 -19 130 0 6 -11 12
-23 12 -23 0 -25 -6 -40 -117z m52 -45 c1 -10 -6 -18 -15 -18 -13 0 -15 7 -10
31 3 17 7 43 7 58 1 19 3 16 10 -14 4 -22 8 -48 8 -57z"/>
<path d="M1450 460 l0 -130 49 0 c35 0 51 4 55 16 11 30 7 219 -6 232 -7 7
-31 12 -55 12 l-43 0 0 -130z m70 0 c0 -82 -3 -100 -15 -100 -12 0 -15 18 -15
100 0 82 3 100 15 100 12 0 15 -18 15 -100z"/>
<path d="M1602 578 c-8 -8 -12 -49 -12 -118 0 -117 5 -130 57 -130 47 0 55 23
51 141 -3 107 -9 119 -58 119 -15 0 -31 -5 -38 -12z m56 -120 c-2 -84 -6 -103
-18 -103 -12 0 -16 18 -18 89 -3 99 0 116 23 116 13 0 15 -15 13 -102z"/>
<path d="M567 543 c-4 -3 -7 -14 -7 -24 0 -9 -9 -19 -20 -22 -17 -4 -20 -14
-20 -64 0 -64 11 -84 41 -76 17 5 19 15 19 99 0 94 -1 100 -13 87z m-7 -119
c0 -34 -4 -53 -10 -49 -5 3 -10 28 -10 56 0 27 5 49 10 49 6 0 10 -25 10 -56z"/>
<path d="M690 450 c0 -53 4 -90 10 -90 6 0 10 37 10 90 0 53 -4 90 -10 90 -6
0 -10 -37 -10 -90z"/>
<path d="M610 475 c-25 -66 0 -137 41 -115 20 11 27 50 9 50 -5 0 -10 -6 -10
-14 0 -8 -4 -18 -10 -21 -6 -4 -10 5 -10 19 0 20 5 26 21 26 17 0 20 5 17 38
-2 30 -7 38 -25 40 -17 3 -26 -3 -33 -23z m40 -15 c0 -11 -4 -20 -10 -20 -5 0
-10 9 -10 20 0 11 5 20 10 20 6 0 10 -9 10 -20z"/>
<path d="M1779 484 c-11 -14 -10 -22 9 -55 24 -41 28 -59 12 -59 -5 0 -10 10
-10 22 0 17 -3 19 -12 10 -9 -9 -10 -17 -2 -29 16 -25 31 -26 44 -3 9 17 7 27
-9 54 -23 36 -27 56 -11 56 6 0 10 -7 10 -15 0 -8 5 -15 10 -15 14 0 13 23 -2
38 -16 16 -23 15 -39 -4z"/>
<path d="M1875 443 c-4 -27 -9 -56 -12 -65 -5 -20 13 -25 21 -5 3 8 10 6 21
-8 16 -19 17 -17 10 45 -3 35 -9 68 -11 72 -12 19 -23 4 -29 -39z m22 -35 c-3
-7 -5 -2 -5 12 0 14 2 19 5 13 2 -7 2 -19 0 -25z"/>
<path d="M1841 364 c0 -11 3 -14 6 -6 3 7 2 16 -1 19 -3 4 -6 -2 -5 -13z"/>
<path d="M1930 370 c0 -5 5 -10 10 -10 6 0 10 5 10 10 0 6 -4 10 -10 10 -5 0
-10 -4 -10 -10z"/>
<path d="M678 163 c7 -3 16 -2 19 1 4 3 -2 6 -13 5 -11 0 -14 -3 -6 -6z"/>
</g>
</svg>
